# xmcd
#
# Track frame offsets:
# 150
# 14525
# 25675
# 46127
# 61620
# 75557
# 87642
# 104210
# 117092
# 130380
# 142342
# 160322
#
# Disc length: 2343 seconds
#
#
# Revision: 0
# Processed by: cddbd v1.5.1PL0 Copyright (c) Steve Scherf et al.
# Submitted via: FreeRIP 2.941 
#
DISCID=a209250c
DTITLE=Varios - I love country music
DYEAR=1993
DGENRE=Country
TTITLE0=Corazon de oro - Willie Nelson
TTITLE1=Descubri tu trampa - Rattlesnake Annie
TTITLE2=Entre las estrellas - Merle Haggard
TTITLE3=Crimen Pasional - Ricky Van Shelton
TTITLE4=Necesito un tiempo afuera para portarme mal - David Allan COe
TTITLE5=Camino a Texas - Asleep at the whell
TTITLE6=No quiero ser un recuerdo - Exile
TTITLE7=Mi corazon no puede parar de amarte - The O`Kanes
TTITLE8=Cadenas doradas - Sweethearts of the rodeo
TTITLE9=Tonto completo - Mickey Gilley
TTITLE10=Vida domestica - John Conlee
TTITLE11=Eres mi primera dama - T.G. Shephard
EXTD=
EXTT0=
EXTT1=
EXTT2=
EXTT3=
EXTT4=
EXTT5=
EXTT6=
EXTT7=
EXTT8=
EXTT9=
EXTT10=
EXTT11=
PLAYORDER=
